<?xml version="1.0" standalone="yes"?>
<svg xmlns="http://www.w3.org/2000/svg" width="500" height="500">
<path style="fill:#FFFFFF; stroke:none;" d="M0 0L0 500L500 500L500 0L0 0z"/>
<path style="fill:#258039; stroke:none;" d="M12 12L12 487L487 487L487 12L12 12z"/>
<path style="fill:#FFFFFF; stroke:none;" d="M209 375C189.697 375.053 172.15 378.261 158.38 361C152.611 353.77 150.479 344.377 144.761 337.015C139.76 330.577 131.811 327.285 128 320C130.609 319.173 133.22 318.188 136 318.267C151.776 318.713 157.825 334.226 167.3 343.7C174.463 350.862 184.031 353.794 194 352.83C198.118 352.432 204.242 352.01 207.487 349.157C209.992 346.953 210.305 342.958 211.464 340C213.33 335.237 216.231 331.244 219 327C205.296 323.624 191.539 322.285 179 315.127C151.073 299.185 140.489 264.509 145.438 234C146.567 227.041 148.928 220.12 152.429 214C154.705 210.02 158.407 206.276 160.022 202C161.648 197.697 158.857 192.361 158.289 188C157.439 181.471 158.364 174.371 159.899 168C160.798 164.268 161.806 158.472 166.108 157.322C175.691 154.76 190.141 163.414 198 168.012C201.12 169.837 204.408 172.633 208 173.4C211.512 174.149 215.571 172.498 219 171.801C225.55 170.47 232.312 169.332 239 169.039C249.212 168.592 259.913 168.426 270 170.08C276.127 171.085 284.935 174.547 291 173.491C294.942 172.805 298.589 169.67 302 167.72C308.597 163.949 315.598 160.382 323 158.478C326.728 157.52 332.261 155.821 335.581 158.603C337.956 160.594 338.664 164.138 339.346 167C341.121 174.452 341.664 182.39 340.572 190C340.086 193.38 338.359 197.61 339.063 201C340.032 205.658 344.803 209.883 347.124 214C351.082 221.02 353.322 229.069 354.561 237C358.987 265.337 347.446 299.387 322 314.124C308.868 321.73 295.025 322.565 281 327C283.849 332.753 287.488 337.707 289.254 344C292.79 356.598 291 371.027 291 384C291 390.455 288.283 404.85 294.228 409.141C300.831 413.907 313.841 406.272 320 403.244C342.759 392.055 362.982 377.043 378.789 357C425.146 298.219 426.588 213.987 381.525 154C368.679 136.901 352.372 122.534 334 111.604C316.332 101.093 296.381 93.8242 276 91C241.324 86.195 206.551 90.5926 175 106.37C102.133 142.809 67.8147 230.444 93.3333 307C104.765 341.295 128.044 371.243 158 391.329C168.332 398.257 179.413 403.72 191 408.189C196.108 410.159 202.24 412.639 206.566 407.772C209.24 404.763 208.994 400.759 209 397L209 375z"/>
</svg>
