<?xml version="1.0" standalone="yes"?>
<svg xmlns="http://www.w3.org/2000/svg" width="500" height="500">
<path style="fill:#FFFFFF; stroke:none;" d="M0 0L0 500L500 500L500 0L0 0z"/>
<path style="fill:#258039; stroke:none;" d="M13 13L13 488L488 488L488 13L13 13z"/>
<path style="fill:#FFFFFF; stroke:none;" d="M120 90.4645C114.984 91.3688 110.196 93.3353 106 96.2207C79.0733 114.736 86.3623 157.509 118 165.844C123.505 167.294 129.403 167.392 135 166.384C141.247 165.26 146.897 163.072 151.996 159.239C177.042 140.417 168.419 99.673 139 91.0432C133.257 89.3585 125.876 89.4051 120 90.4645M269 226C266.385 217.153 268 206.203 268 197L204 197L204 412L270 412L270 328C270 311.054 268.519 292.265 274.004 276C281.716 253.127 311.993 240.406 331.985 257.329C345.428 268.708 345 287.967 345 304L345 412L412 412L412 300C412 273.419 412.527 244.462 397.934 221C378.889 190.379 333.532 184.495 302 196.812C288.927 201.918 274.127 212.478 269 226M95 197L95 412L162 412L162 197L95 197z"/>
</svg>
