<?xml version="1.0" standalone="yes"?>
<svg xmlns="http://www.w3.org/2000/svg" width="500" height="500">
<path style="fill:#fffffd; stroke:none;" d="M0 0L0 500L500 500L500 0L0 0z"/>
<path style="fill:#258039; stroke:none;" d="M13 13L13 488L488 488L488 13L13 13z"/>
<path style="fill:#fffffd; stroke:none;" d="M95 125C97.6138 130.605 102.668 134.668 107 139L130 162L210 242L237 269C239.617 271.617 243.899 277.793 248 277.793C252.101 277.793 256.383 271.617 259 269L286 242L366 162L389 139C393.623 134.377 399.21 129.983 402 124L194 124L129 124C118.024 124 105.712 122.45 95 125M76 144C74.377 150.817 75 158.03 75 165L75 199L75 309L75 341C75 349.729 75.1598 359.009 81.3295 365.907C88.9725 374.452 98.5306 374 109 374L156 374L348 374L391 374C401.08 374 410.194 374.618 417.906 366.906C425.37 359.442 425 350.788 425 341L425 309L425 196L425 161C425 154.03 425.623 146.817 424 140C418.017 142.79 413.623 148.377 409 153L383 179L295 267L263 299C259.014 302.984 254.208 309.315 248 309.457C241.872 309.597 236.889 302.887 233 299L202 268L116 182L91 157C86.3769 152.377 81.9833 146.79 76 144z"/>
</svg>
